<?xml version="1.0" ?><svg viewBox="0 0 64 64" xmlns="http://www.w3.org/2000/svg"><defs><style>.cls-1{fill:#52ffaa;}.cls-2{fill:#ff5272;}.cls-3{fill:#f3f9ff;}.cls-4{fill:#e64a68;}.cls-5{fill:#17e198;}.cls-6{fill:#1b212d;}</style></defs><g id="Watermelon"><path class="cls-1" d="M50.39,4,4,50.39A32.8,32.8,0,1,0,50.39,4Z" id="path6777-6"/><path class="cls-2" d="M46.07,8.32,8.32,46.07A26.69,26.69,0,1,0,46.07,8.32Z" id="circle6779-1"/><path class="cls-3" d="M44,22.05a2.53,2.53,0,1,1-3.57,3.58c-1-1-2.09-3.69-1.11-4.68s3.69.12,4.68,1.1Z" id="path6789-5"/><path class="cls-3" d="M25.63,40.43A2.53,2.53,0,1,1,22.05,44c-1-1-2.09-3.69-1.1-4.68S24.64,39.44,25.63,40.43Z" id="path6792-9"/><path class="cls-3" d="M34.82,31.24a2.53,2.53,0,1,1-3.58,3.58c-1-1-2.09-3.7-1.1-4.68s3.69.11,4.68,1.1Z" id="path6794-4"/><path class="cls-3" d="M46.89,34a2.53,2.53,0,1,1-3.57,3.58c-1-1-2.09-3.69-1.11-4.68S45.9,33,46.89,34Z" id="path6804-9"/><path class="cls-3" d="M37.71,43.19a2.53,2.53,0,1,1-3.58,3.58c-1-1-2.09-3.7-1.1-4.68s3.69.11,4.68,1.1Z" id="path6806-0"/><path class="cls-4" d="M46.07,8.32,44,10.43A26.69,26.69,0,0,1,25.19,53.81c.67.06,1.34.08,2,.08A26.69,26.69,0,0,0,46.07,8.32Z" id="path9225"/><path class="cls-5" d="M50.39,4,48.3,6.09A32.8,32.8,0,0,1,25.2,59.94c.66,0,1.33.06,2,.06A32.8,32.8,0,0,0,50.39,4Z" id="path9230"/><path class="cls-6" d="M50.39,3a1,1,0,0,0-.71.29L3.29,49.68a1,1,0,0,0,0,1.42A33.81,33.81,0,0,0,51.1,3.29,1,1,0,0,0,50.39,3ZM46.06,9.75A25.69,25.69,0,0,1,9.75,46.06ZM27.2,59A31.57,31.57,0,0,1,5.42,50.38l2.92-2.91A27.69,27.69,0,0,0,54.89,27.2,27.48,27.48,0,0,0,47.47,8.34l2.91-2.92A31.81,31.81,0,0,1,27.2,59Z"/><path class="cls-6" d="M42.21,27.37a3.53,3.53,0,0,0,2.5-6c-1.24-1.24-4.57-2.63-6.09-1.11s-.14,4.86,1.1,6.1A3.55,3.55,0,0,0,42.21,27.37ZM40,21.66a.53.53,0,0,1,.4-.11,5.06,5.06,0,0,1,2.86,1.21,1.53,1.53,0,1,1-2.16,2.16C40.28,24.07,39.67,22,40,21.66Z"/><path class="cls-6" d="M26.34,39.72c-1.24-1.24-4.57-2.63-6.1-1.1s-.13,4.85,1.11,6.09a3.51,3.51,0,0,0,2.49,1,3.53,3.53,0,0,0,2.5-6Zm-1.42,3.57a1.56,1.56,0,0,1-2.16,0c-.85-.85-1.46-2.9-1.1-3.26a.58.58,0,0,1,.4-.11,5.06,5.06,0,0,1,2.86,1.21A1.52,1.52,0,0,1,24.92,43.29Z"/><path class="cls-6" d="M33,36.55a3.52,3.52,0,0,0,2.49-6c-1.23-1.23-4.57-2.63-6.09-1.1s-.13,4.86,1.1,6.09A3.51,3.51,0,0,0,33,36.55Zm-2.19-5.71a.63.63,0,0,1,.41-.1A5,5,0,0,1,34.11,32a1.52,1.52,0,0,1,0,2.16,1.54,1.54,0,0,1-2.16,0C31.09,33.25,30.48,31.21,30.84,30.84Z"/><path class="cls-6" d="M41.51,32.19c-1.53,1.53-.14,4.86,1.1,6.1a3.53,3.53,0,1,0,5-5C46.36,32.06,43,30.67,41.51,32.19Zm4.67,4.68a1.52,1.52,0,0,1-2.16,0c-.85-.85-1.46-2.9-1.1-3.26a.6.6,0,0,1,.4-.11,5.06,5.06,0,0,1,2.86,1.21A1.52,1.52,0,0,1,46.18,36.87Z"/><path class="cls-6" d="M32.32,41.38c-1.52,1.52-.13,4.86,1.1,6.09a3.53,3.53,0,0,0,5-5C37.18,41.25,33.84,39.85,32.32,41.38ZM37,46.06a1.53,1.53,0,0,1-2.16,0c-.86-.86-1.47-2.9-1.11-3.27a.63.63,0,0,1,.41-.1A5,5,0,0,1,37,43.9,1.54,1.54,0,0,1,37,46.06Z"/></g></svg>